<svg width="20" height="20" viewBox="0 0 20 20" fill="none" xmlns="http://www.w3.org/2000/svg">
<circle cx="10" cy="10" r="9.25" stroke="white" stroke-width="1.5"/>
<mask id="mask0_135_1754" style="mask-type:alpha" maskUnits="userSpaceOnUse" x="0" y="0" width="20" height="20">
<circle cx="10" cy="10" r="9.25" fill="white" stroke="black" stroke-width="1.5"/>
</mask>
<g mask="url(#mask0_135_1754)">
<path d="M7.12404 8.58397C6.89427 8.23933 6.42862 8.1462 6.08397 8.37596C5.73933 8.60573 5.6462 9.07138 5.87596 9.41603L7.12404 8.58397ZM9.5 13.5L8.87596 13.916C9.01774 14.1287 9.25807 14.2545 9.51363 14.2499C9.76919 14.2452 10.0048 14.1108 10.1387 13.8931L9.5 13.5ZM14.1387 7.39307C14.3558 7.0403 14.2458 6.57834 13.8931 6.36126C13.5403 6.14417 13.0783 6.25416 12.8613 6.60693L14.1387 7.39307ZM5.87596 9.41603L8.87596 13.916L10.124 13.084L7.12404 8.58397L5.87596 9.41603ZM10.1387 13.8931L14.1387 7.39307L12.8613 6.60693L8.86126 13.1069L10.1387 13.8931Z" fill="white"/>
</g>
</svg>
