<svg width="180" height="40" viewBox="0 0 180 40" fill="none" xmlns="http://www.w3.org/2000/svg">
<g clip-path="url(#clip0_184_605)">
<path d="M7.0848 13.2791V19.7776C5.29909 20.2908 3.45014 20.5506 1.59213 20.5495C1.054 20.5495 0.523288 20.5272 0 20.4864V6.19434C1.87901 6.19434 3.68105 6.94077 5.00971 8.26943C6.33837 9.59808 7.0848 11.4001 7.0848 13.2791Z" fill="url(#paint0_linear_184_605)"/>
<path d="M30.9037 18.3521V24.5499C30.9045 27.8965 29.8187 31.153 27.8094 33.8294C25.8002 36.5058 22.9763 38.4574 19.7624 39.3907C16.5485 40.324 13.1185 40.1886 9.98826 39.0047C6.858 37.8208 4.19679 35.6525 2.40491 32.826C3.93744 30.8347 5.66836 29.0043 7.57099 27.363C8.2353 29.2183 9.53299 30.7796 11.2355 31.772C12.938 32.7643 14.936 33.1241 16.8777 32.7879C18.8195 32.4518 20.5803 31.4412 21.85 29.9342C23.1198 28.4272 23.817 26.5205 23.8189 24.5499V19.2131C26.1474 18.6991 28.5199 18.4108 30.9037 18.3521Z" fill="url(#paint1_linear_184_605)"/>
<path d="M30.9037 6.19434V18.3524C28.5199 18.4112 26.1473 18.6995 23.8188 19.2135V13.2754C23.8198 11.3971 24.5667 9.59597 25.8952 8.26811C27.2238 6.94026 29.0253 6.19434 30.9037 6.19434Z" fill="url(#paint2_linear_184_605)"/>
<path d="M18.6491 20.7573C17.9068 25.9197 16.3555 29.5196 15.539 29.5196C14.8784 29.5196 13.7391 27.1555 12.9412 23.5111C14.76 22.4287 16.6699 21.5073 18.6491 20.7573Z" fill="url(#paint3_linear_184_605)"/>
<path d="M18.8681 10.3915C17.245 13.3033 14.9143 15.7591 12.0913 17.532C12.0319 16.6339 11.9985 15.7061 11.9985 14.7597C11.9985 6.60605 14.2587 0 15.5391 0C16.5782 0 18.2743 4.37187 18.8681 10.3915Z" fill="url(#paint4_linear_184_605)"/>
<path d="M19.0833 14.7598C19.0827 16.7667 18.9376 18.771 18.6491 20.7572C16.6674 21.5068 14.755 22.4282 12.9338 23.5109C12.5024 21.5421 12.2207 19.5434 12.0913 17.5321C14.9143 15.7591 17.245 13.3034 18.8681 10.3916C19.0017 11.7722 19.0833 13.2381 19.0833 14.7598Z" fill="url(#paint5_linear_184_605)"/>
<path d="M7.57101 27.3632C5.66838 29.0045 3.93746 30.8349 2.40493 32.8261C0.828815 30.354 -0.00576693 27.4819 2.99944e-05 24.55V20.4676C0.523318 20.5085 1.05403 20.5307 1.59216 20.5307C3.45017 20.5319 5.29912 20.272 7.08483 19.7588V24.55C7.08531 25.5086 7.24974 26.46 7.57101 27.3632Z" fill="url(#paint6_linear_184_605)"/>
<path d="M57.5765 11.1674C57.7748 11.1602 57.9723 11.1959 58.1555 11.2721C58.3387 11.3484 58.5033 11.4633 58.6379 11.609C58.9078 11.9086 59.0514 12.3009 59.0388 12.7039V21.8113C59.0671 23.105 58.7589 24.3838 58.1443 25.5226C57.5753 26.5722 56.726 27.4433 55.6912 28.0388C54.5738 28.6334 53.3274 28.9444 52.0616 28.9444C50.7958 28.9444 49.5494 28.6334 48.432 28.0388C47.3912 27.4461 46.5364 26.5746 45.964 25.5226C45.3523 24.3829 45.0455 23.1045 45.0733 21.8113V12.7039C45.0677 12.4998 45.1051 12.2969 45.1832 12.1083C45.2612 11.9197 45.378 11.7496 45.526 11.609C45.6797 11.4618 45.8614 11.3468 46.0603 11.2709C46.2591 11.1951 46.4712 11.1599 46.684 11.1674C47.0763 11.171 47.4512 11.3298 47.7268 11.609C47.8778 11.7478 47.9974 11.9173 48.0774 12.1062C48.1574 12.295 48.1961 12.4988 48.1907 12.7039V21.8113C48.1711 22.5731 48.3584 23.326 48.7326 23.9898C49.0727 24.5745 49.56 25.06 50.146 25.3979C50.732 25.7358 51.3963 25.9144 52.0727 25.916C52.7752 25.9212 53.4674 25.7475 54.0842 25.4112C54.7337 25.0659 55.2737 24.5458 55.6429 23.9096C56.0122 23.2734 56.196 22.5466 56.1737 21.8113V12.7039C56.1583 12.3057 56.2905 11.9158 56.5448 11.609C56.6723 11.4623 56.8313 11.3464 57.01 11.2699C57.1887 11.1934 57.3824 11.1584 57.5765 11.1674Z" fill="#1D1D1B"/>
<path d="M64.8729 28.8106C64.6674 28.821 64.4619 28.7886 64.2696 28.7153C64.0772 28.6421 63.9022 28.5297 63.7556 28.3852C63.609 28.2407 63.4941 28.0673 63.4181 27.876C63.3421 27.6848 63.3067 27.4798 63.3142 27.2741V12.7297C63.3087 12.5256 63.3461 12.3227 63.4241 12.1341C63.5021 11.9454 63.6189 11.7753 63.767 11.6348C63.9207 11.4876 64.1023 11.3726 64.3012 11.2967C64.5001 11.2209 64.7122 11.1857 64.9249 11.1932C65.1311 11.184 65.337 11.2187 65.5289 11.2948C65.7208 11.3709 65.8944 11.4868 66.0383 11.6348C66.1763 11.7809 66.284 11.9529 66.3554 12.1408C66.4267 12.3286 66.4602 12.5288 66.4539 12.7297V27.2741C66.4636 27.4791 66.4307 27.6839 66.3572 27.8755C66.2838 28.0672 66.1714 28.2415 66.0271 28.3875C65.874 28.5333 65.6925 28.6461 65.494 28.7188C65.2954 28.7916 65.084 28.8228 64.8729 28.8106ZM75.747 11.067C75.9391 11.0644 76.1291 11.1074 76.3014 11.1926C76.4737 11.2778 76.6233 11.4026 76.7379 11.5569C76.9715 11.8364 77.1024 12.1873 77.109 12.5515C77.1043 12.7376 77.0618 12.9208 76.9839 13.0899C76.9061 13.259 76.7946 13.4104 76.6562 13.535L66.1311 23.6259L66.0049 20.026L74.5111 11.646C74.6672 11.4708 74.8572 11.3292 75.0696 11.2297C75.2821 11.1302 75.5125 11.0749 75.747 11.067ZM75.4426 28.8106C75.2208 28.815 75.0014 28.7645 74.8038 28.6635C74.6063 28.5624 74.4369 28.4141 74.3107 28.2316L68.4989 20.579L70.7887 18.2409L76.801 26.1904C77.0291 26.486 77.153 26.8488 77.1535 27.2221C77.1602 27.441 77.1161 27.6584 77.0247 27.8574C76.9332 28.0564 76.797 28.2315 76.6265 28.3689C76.2981 28.6541 75.8776 28.8109 75.4426 28.8106Z" fill="#1D1D1B"/>
<path d="M82.1117 28.8105C81.6537 28.8145 81.2086 28.6583 80.8536 28.3688C80.6788 28.2413 80.5373 28.0735 80.441 27.8797C80.3448 27.6859 80.2966 27.4718 80.3006 27.2555V12.7296C80.2971 12.5268 80.3345 12.3254 80.4104 12.1374C80.4864 11.9494 80.5995 11.7787 80.7428 11.6353C80.8862 11.4919 81.057 11.3789 81.245 11.3029C81.433 11.2269 81.6344 11.1896 81.8371 11.1931H89.0704C89.9405 11.1872 90.795 11.4237 91.5383 11.876C92.3101 12.3456 92.9489 13.0048 93.394 13.791C93.874 14.647 94.1174 15.6154 94.0991 16.5967C94.0974 17.2354 93.9648 17.8669 93.7094 18.4523C93.451 19.0521 93.0934 19.6042 92.6517 20.0853C92.2348 20.5552 91.7307 20.9396 91.1672 21.2172L91.1932 20.642C91.6328 20.8687 92.0296 21.1701 92.366 21.5327C92.6712 21.8618 92.9218 22.2377 93.1082 22.6461C93.2877 23.0471 93.3945 23.4769 93.4237 23.9153C93.4905 24.3347 93.535 24.7058 93.561 25.0287C93.5785 25.3024 93.6296 25.5729 93.7131 25.834C93.7775 26.0512 93.9222 26.2356 94.1177 26.3499C94.2927 26.4495 94.4446 26.585 94.5636 26.7474C94.6825 26.9099 94.7658 27.0957 94.808 27.2926C94.8598 27.4874 94.8604 27.6922 94.8097 27.8873C94.7589 28.0824 94.6586 28.2611 94.5185 28.4059C94.3383 28.6215 94.0892 28.7683 93.8133 28.8216C93.5319 28.881 93.2412 28.881 92.9598 28.8216C92.7145 28.7767 92.4771 28.6967 92.2546 28.5841C91.931 28.3841 91.6416 28.1335 91.3973 27.8418C91.079 27.4535 90.844 27.0037 90.707 26.5206C90.5115 25.8242 90.4226 25.1022 90.4435 24.3792C90.4454 24.1083 90.3937 23.8396 90.2914 23.5887C90.1943 23.3512 90.0489 23.1363 89.8646 22.9578C89.662 22.7738 89.4212 22.637 89.1594 22.557C88.8336 22.4579 88.4942 22.4104 88.1537 22.416H83.0693L83.4404 21.837V27.274C83.458 27.6751 83.3331 28.0695 83.0878 28.3874C82.9688 28.5285 82.8188 28.6401 82.6495 28.7135C82.4801 28.7869 82.2961 28.8201 82.1117 28.8105ZM83.0952 19.7995H88.959C89.1258 19.7919 89.2895 19.7512 89.4405 19.6799C89.5915 19.6085 89.7268 19.5079 89.8386 19.3839C90.1501 19.0671 90.3905 18.6875 90.5437 18.2705C90.7306 17.7671 90.8237 17.2338 90.8184 16.6969C90.8437 16.0285 90.635 15.3723 90.2283 14.8413C90.089 14.6273 89.9018 14.4488 89.6815 14.32C89.4611 14.1911 89.2137 14.1155 88.959 14.099H83.1323L83.4367 13.2937V20.4119L83.0952 19.7995Z" fill="#1D1D1B"/>
<path d="M101.236 27.2743C101.244 27.4834 101.205 27.6916 101.123 27.8841C101.041 28.0765 100.917 28.2485 100.761 28.3877C100.461 28.6739 100.062 28.8322 99.6475 28.8293C99.4419 28.8397 99.2365 28.8073 99.0441 28.7341C98.8518 28.6608 98.6767 28.5484 98.5302 28.4039C98.3836 28.2594 98.2686 28.0861 98.1927 27.8948C98.1167 27.7035 98.0813 27.4985 98.0887 27.2928V12.7298C98.085 12.526 98.1233 12.3237 98.2012 12.1353C98.2791 11.9469 98.3949 11.7766 98.5415 11.635C98.6952 11.4877 98.8769 11.3728 99.0758 11.2969C99.2746 11.2211 99.4867 11.1859 99.6995 11.1934C100.1 11.1938 100.484 11.3525 100.768 11.635C100.919 11.7738 101.039 11.9433 101.119 12.1322C101.199 12.321 101.238 12.5248 101.232 12.7298L101.236 27.2743Z" fill="#1D1D1B"/>
<path d="M118.879 11.193C119.064 11.1837 119.249 11.2147 119.421 11.2839C119.592 11.3532 119.747 11.4589 119.874 11.5938C120 11.7318 120.098 11.8933 120.161 12.069C120.225 12.2448 120.254 12.4314 120.245 12.6181V27.2739C120.249 27.4763 120.211 27.6774 120.136 27.8652C120.06 28.0529 119.947 28.2235 119.804 28.3668C119.661 28.5102 119.491 28.6233 119.303 28.6995C119.116 28.7757 118.915 28.8134 118.712 28.8104C118.485 28.8077 118.259 28.7689 118.044 28.6953C117.846 28.6398 117.668 28.5306 117.528 28.3799L107.627 15.8247L108.28 15.4202V27.4001C108.288 27.584 108.259 27.7676 108.195 27.9403C108.132 28.1129 108.034 28.2712 107.909 28.4059C107.775 28.5407 107.616 28.6463 107.439 28.7159C107.263 28.7856 107.074 28.8177 106.884 28.8104C106.702 28.8161 106.52 28.783 106.351 28.7133C106.182 28.6435 106.03 28.5388 105.905 28.4059C105.653 28.1325 105.52 27.7711 105.534 27.4001V12.7295C105.53 12.5267 105.567 12.3254 105.643 12.1374C105.719 11.9494 105.832 11.7786 105.976 11.6352C106.119 11.4918 106.29 11.3788 106.478 11.3028C106.666 11.2268 106.867 11.1895 107.07 11.193C107.324 11.1939 107.575 11.2404 107.812 11.3303C108.037 11.404 108.232 11.5502 108.365 11.746L117.951 23.9932L117.525 24.2938V12.6181C117.511 12.246 117.645 11.8836 117.896 11.6087C118.022 11.4746 118.174 11.3683 118.344 11.2968C118.513 11.2252 118.695 11.1898 118.879 11.193Z" fill="#1D1D1B"/>
<path d="M136.849 12.0469C137.053 12.1411 137.23 12.2849 137.363 12.4652C137.497 12.6454 137.583 12.8564 137.614 13.0786C137.652 13.3068 137.639 13.5407 137.575 13.763C137.51 13.9853 137.397 14.1903 137.243 14.3627C137.149 14.5041 137.024 14.6228 136.878 14.7101C136.733 14.7975 136.569 14.8512 136.4 14.8674C136.04 14.898 135.677 14.8287 135.354 14.667C134.52 14.2855 133.613 14.0929 132.696 14.1029C131.867 14.0838 131.042 14.2237 130.265 14.5149C129.576 14.7835 128.954 15.2003 128.443 15.7359C127.933 16.2728 127.542 16.9115 127.296 17.61C127.035 18.3792 126.909 19.1879 126.925 20.0001C126.906 20.9092 127.056 21.814 127.367 22.6685C127.631 23.3798 128.048 24.0246 128.588 24.5575C129.11 25.06 129.738 25.4403 130.425 25.6709C131.162 25.9228 131.936 26.0483 132.715 26.042C133.171 26.0405 133.625 25.9983 134.073 25.9159C134.528 25.8289 134.968 25.6764 135.38 25.4631C135.703 25.3009 136.067 25.2389 136.426 25.2849C136.599 25.312 136.764 25.3728 136.913 25.4639C137.062 25.5549 137.192 25.6745 137.295 25.8157C137.452 25.9884 137.567 26.1952 137.632 26.4198C137.696 26.6445 137.708 26.881 137.666 27.1109C137.626 27.3226 137.535 27.5215 137.401 27.6903C137.268 27.8591 137.095 27.9927 136.897 28.0795C136.464 28.2969 136.013 28.4782 135.55 28.6214C135.093 28.763 134.627 28.8721 134.155 28.948C133.681 29.0226 133.202 29.0599 132.722 29.0593C131.552 29.0658 130.389 28.8699 129.286 28.4803C128.218 28.1051 127.234 27.5238 126.391 26.7695C125.522 25.9858 124.839 25.0185 124.39 23.9378C123.877 22.6895 123.625 21.3495 123.648 20.0001C123.635 18.7766 123.862 17.5624 124.316 16.4262C124.737 15.3641 125.373 14.4001 126.183 13.5945C127.011 12.7921 127.99 12.1615 129.063 11.7388C130.217 11.2852 131.449 11.0584 132.689 11.0708C133.417 11.0706 134.144 11.1553 134.853 11.3232C135.544 11.4844 136.215 11.7273 136.849 12.0469Z" fill="#1D1D1B"/>
<path d="M157.005 19.9998C157.014 21.2039 156.8 22.3993 156.374 23.5255C155.97 24.5891 155.368 25.5664 154.6 26.4054C153.84 27.2364 152.914 27.9 151.883 28.3538C150.286 29.0732 148.504 29.2721 146.787 28.9224C145.071 28.5728 143.508 27.6922 142.32 26.4054C141.553 25.5654 140.951 24.5884 140.546 23.5255C139.708 21.2495 139.708 18.75 140.546 16.4741C140.95 15.4096 141.552 14.4312 142.32 13.5904C143.081 12.7651 144.001 12.1024 145.025 11.642C146.624 10.9251 148.408 10.7276 150.126 11.0771C151.843 11.4266 153.408 12.3055 154.6 13.5904C155.369 14.4302 155.971 15.4089 156.374 16.4741C156.801 17.6001 157.015 18.7956 157.005 19.9998ZM153.732 19.9998C153.746 18.9415 153.514 17.8943 153.053 16.9417C152.634 16.0676 151.994 15.3179 151.197 14.7669C150.378 14.2413 149.425 13.9619 148.452 13.9619C147.479 13.9619 146.527 14.2413 145.708 14.7669C144.91 15.312 144.269 16.0584 143.852 16.9306C143.395 17.8883 143.167 18.9388 143.184 19.9998C143.169 21.0569 143.398 22.1033 143.852 23.0579C144.267 23.9356 144.907 24.6874 145.708 25.2364C146.527 25.762 147.479 26.0414 148.452 26.0414C149.425 26.0414 150.378 25.762 151.197 25.2364C151.995 24.6843 152.634 23.9333 153.053 23.0579C153.514 22.1053 153.747 21.0581 153.732 19.9998Z" fill="#1D1D1B"/>
<path d="M161.989 11.1672C162.248 11.1737 162.502 11.2384 162.732 11.3565C162.969 11.4638 163.173 11.633 163.322 11.8464L169.438 21.2582L168.18 21.2099L174.429 11.8464C174.56 11.638 174.742 11.4663 174.958 11.3475C175.173 11.2287 175.415 11.1666 175.662 11.1672C176.064 11.1679 176.451 11.3203 176.745 11.594C176.902 11.7328 177.026 11.9046 177.109 12.0971C177.192 12.2896 177.231 12.498 177.224 12.7074V27.2741C177.232 27.4801 177.196 27.6854 177.12 27.877C177.044 28.0685 176.928 28.2421 176.781 28.3866C176.634 28.5312 176.459 28.6435 176.266 28.7165C176.073 28.7895 175.867 28.8215 175.662 28.8106C175.451 28.8184 175.241 28.7833 175.045 28.7074C174.848 28.6315 174.669 28.5163 174.519 28.3689C174.372 28.2242 174.256 28.0505 174.18 27.8588C174.104 27.6671 174.069 27.4616 174.077 27.2556V15.4203L175.06 15.6467L169.939 23.4738C169.782 23.6664 169.59 23.8286 169.375 23.9525C169.167 24.0823 168.925 24.1433 168.681 24.127C168.446 24.1403 168.214 24.0792 168.016 23.9525C167.8 23.8277 167.608 23.6656 167.449 23.4738L162.642 15.8731L163.296 14.5408V27.2741C163.313 27.6834 163.169 28.0833 162.895 28.3875C162.761 28.5328 162.597 28.6474 162.414 28.7236C162.232 28.7998 162.035 28.8358 161.837 28.8291C161.643 28.8347 161.451 28.7982 161.273 28.7219C161.094 28.6456 160.935 28.5315 160.805 28.3875C160.53 28.0836 160.385 27.6839 160.401 27.2741V12.7037C160.399 12.5005 160.44 12.2992 160.52 12.1126C160.601 11.926 160.72 11.7582 160.868 11.62C161.015 11.4732 161.19 11.3574 161.383 11.2797C161.575 11.2019 161.782 11.1636 161.989 11.1672Z" fill="#1D1D1B"/>
</g>
<defs>
<linearGradient id="paint0_linear_184_605" x1="0.285768" y1="12.8189" x2="14.9935" y2="22.5759" gradientUnits="userSpaceOnUse">
<stop stop-color="#FFEF26"/>
<stop offset="0.02" stop-color="#FFEA21"/>
<stop offset="0.1" stop-color="#FED70F"/>
<stop offset="0.19" stop-color="#FDCC04"/>
<stop offset="0.28" stop-color="#FDC800"/>
<stop offset="0.67" stop-color="#F18F34"/>
<stop offset="0.89" stop-color="#E95F32"/>
<stop offset="1" stop-color="#E3312D"/>
</linearGradient>
<linearGradient id="paint1_linear_184_605" x1="10.1355" y1="8.33163" x2="22.5163" y2="41.0984" gradientUnits="userSpaceOnUse">
<stop stop-color="#7BB9E7"/>
<stop offset="0.08" stop-color="#72B4E4"/>
<stop offset="0.22" stop-color="#58A7DB"/>
<stop offset="0.4" stop-color="#2F91CE"/>
<stop offset="0.57" stop-color="#0078BE"/>
<stop offset="1" stop-color="#154F9E"/>
</linearGradient>
<linearGradient id="paint2_linear_184_605" x1="15.1456" y1="2.32349" x2="37.4281" y2="21.2546" gradientUnits="userSpaceOnUse">
<stop stop-color="#FFEF26"/>
<stop offset="0.02" stop-color="#FFEA21"/>
<stop offset="0.1" stop-color="#FED70F"/>
<stop offset="0.19" stop-color="#FDCC04"/>
<stop offset="0.28" stop-color="#FDC800"/>
<stop offset="0.67" stop-color="#F18F34"/>
<stop offset="0.89" stop-color="#E95F32"/>
<stop offset="1" stop-color="#E3312D"/>
</linearGradient>
<linearGradient id="paint3_linear_184_605" x1="10.3804" y1="8.23923" x2="22.7612" y2="41.006" gradientUnits="userSpaceOnUse">
<stop stop-color="#7BB9E7"/>
<stop offset="0.08" stop-color="#72B4E4"/>
<stop offset="0.22" stop-color="#58A7DB"/>
<stop offset="0.4" stop-color="#2F91CE"/>
<stop offset="0.57" stop-color="#0078BE"/>
<stop offset="1" stop-color="#154F9E"/>
</linearGradient>
<linearGradient id="paint4_linear_184_605" x1="6.30546" y1="3.74095" x2="21.0169" y2="13.4979" gradientUnits="userSpaceOnUse">
<stop stop-color="#FFEF26"/>
<stop offset="0.02" stop-color="#FFEA21"/>
<stop offset="0.1" stop-color="#FED70F"/>
<stop offset="0.19" stop-color="#FDCC04"/>
<stop offset="0.28" stop-color="#FDC800"/>
<stop offset="0.67" stop-color="#F18F34"/>
<stop offset="0.89" stop-color="#E95F32"/>
<stop offset="1" stop-color="#E3312D"/>
</linearGradient>
<linearGradient id="paint5_linear_184_605" x1="8.24273" y1="10.4473" x2="30.5252" y2="29.3784" gradientUnits="userSpaceOnUse">
<stop stop-color="#FFEF26"/>
<stop offset="0.02" stop-color="#FFEA21"/>
<stop offset="0.1" stop-color="#FED70F"/>
<stop offset="0.19" stop-color="#FDCC04"/>
<stop offset="0.28" stop-color="#FDC800"/>
<stop offset="0.67" stop-color="#F18F34"/>
<stop offset="0.89" stop-color="#E95F32"/>
<stop offset="1" stop-color="#E3312D"/>
</linearGradient>
<linearGradient id="paint6_linear_184_605" x1="-1.04655" y1="21.3806" x2="21.2359" y2="40.3118" gradientUnits="userSpaceOnUse">
<stop stop-color="#FFEF26"/>
<stop offset="0.02" stop-color="#FFEA21"/>
<stop offset="0.1" stop-color="#FED70F"/>
<stop offset="0.19" stop-color="#FDCC04"/>
<stop offset="0.28" stop-color="#FDC800"/>
<stop offset="0.67" stop-color="#F18F34"/>
<stop offset="0.89" stop-color="#E95F32"/>
<stop offset="1" stop-color="#E3312D"/>
</linearGradient>
<clipPath id="clip0_184_605">
<rect width="180" height="40" fill="white"/>
</clipPath>
</defs>
</svg>
