<svg width="40" height="41" viewBox="0 0 40 41" fill="none" xmlns="http://www.w3.org/2000/svg">
<circle cx="20" cy="20.002" r="20" fill="#0099FE"/>
<path d="M25 11.502H15C12 11.502 10 13.002 10 16.502V23.502C10 27.002 12 28.502 15 28.502H25C28 28.502 30 27.002 30 23.502V16.502C30 13.002 28 11.502 25 11.502ZM25.47 17.592L22.34 20.092C21.68 20.622 20.84 20.882 20 20.882C19.16 20.882 18.31 20.622 17.66 20.092L14.53 17.592C14.21 17.332 14.16 16.852 14.41 16.532C14.67 16.212 15.14 16.152 15.46 16.412L18.59 18.912C19.35 19.522 20.64 19.522 21.4 18.912L24.53 16.412C24.85 16.152 25.33 16.202 25.58 16.532C25.84 16.852 25.79 17.332 25.47 17.592Z" fill="white"/>
</svg>
